# xmcd
#
# Track frame offsets: 
#        150
#        14890
#        30807
#        50802
#        69792
#        83317
#        98335
#        114070
#        137227
#        150715
#        177225
#        199642
#        221217
#        234425
#        259787
#        280477
#
# Disc length: 3966 seconds
#
# Revision: 11
# Processed by: cddbd v1.5.2PL0 Copyright (c) Steve Scherf et al.
# Submitted via: ExactAudioCopyFreeDBPlugin 1.0
#
DISCID=cf0f7c10
DTITLE=John Denver - Collection [CD 1)
DYEAR=1997
DGENRE=Country
TTITLE0=Take me home, country roads (1971)
TTITLE1=Higher ground (1991)
TTITLE2=Ponies (1991)
TTITLE3=Rocky Mountain high (1972)
TTITLE4=The eagle and the hawk (1971)
TTITLE5=For you (1991)
TTITLE6=Postcard from Paris (1990)
TTITLE7=Sunshine on my shoulders (1974)
TTITLE8=Whispering Jesse (1991)
TTITLE9=Stoneheaven sunset (1990)
TTITLE10=I watch you sleeping (1990)
TTITLE11=The gift you are (1990)
TTITLE12=The flower that shattered the stone (1990)
TTITLE13=Amazon (1991)
TTITLE14=Eclipse (1974)
TTITLE15=I want the live (1991)
EXTD=LaserLight 211821997Delta Music GmbHD-50226 Frechen YEAR: 1997
EXTT0=
EXTT1=
EXTT2=
EXTT3=
EXTT4=
EXTT5=
EXTT6=
EXTT7=
EXTT8=
EXTT9=
EXTT10=
EXTT11=
EXTT12=
EXTT13=
EXTT14=
EXTT15=
PLAYORDER=
